HIERARCHY
ROOT Hips
{
  OFFSET 5.72205e-005 65.662 3.42586
  CHANNELS 6 Xposition Yposition Zposition Zrotation Xrotation Yrotation
  JOINT Chest
  {
    OFFSET 0 8.7983 -4.7612
    CHANNELS 6 Xposition Yposition Zposition Zrotation Xrotation Yrotation
    JOINT Chest2
    {
      OFFSET 0 8.0291 0.4195
      CHANNELS 6 Xposition Yposition Zposition Zrotation Xrotation Yrotation
      JOINT Chest3
      {
        OFFSET 0 9.9351 -2.2114
        CHANNELS 6 Xposition Yposition Zposition Zrotation Xrotation Yrotation
        JOINT Neck
        {
          OFFSET 0 22.3885 -0.4656
          CHANNELS 6 Xposition Yposition Zposition Zrotation Xrotation Yrotation
          JOINT Head
          {
            OFFSET -0.0001 12.643 3.4389
            CHANNELS 6 Xposition Yposition Zposition Zrotation Xrotation Yrotation
            End Site
            {
              OFFSET 0.0001 17.6655 0.5274
            }
          }
        }
        JOINT LeftCollar
        {
          OFFSET 2.2603 21.606 7.4023
          CHANNELS 6 Xposition Yposition Zposition Zrotation Xrotation Yrotation
          JOINT LeftShoulder
          {
            OFFSET 13.5163 -1.1332 -5.0146
            CHANNELS 6 Xposition Yposition Zposition Zrotation Xrotation Yrotation
            JOINT LeftElbow
            {
              OFFSET -0.0995 -28.05 -0.2431
              CHANNELS 6 Xposition Yposition Zposition Zrotation Xrotation Yrotation
              JOINT LeftWrist
              {
                OFFSET 0.0679 -23.3996 -0.1402
                CHANNELS 6 Xposition Yposition Zposition Zrotation Xrotation Yrotation
                JOINT LeftFinger1
                {
                  OFFSET 0.7932 -9.069 2.5189
                  CHANNELS 6 Xposition Yposition Zposition Zrotation Xrotation Yrotation
                  JOINT LeftFinger11
                  {
                    OFFSET -0.8272 -3.3923 0.5977
                    CHANNELS 6 Xposition Yposition Zposition Zrotation Xrotation Yrotation
                    JOINT LeftFinger12
                    {
                      OFFSET -0.5649 -2.3158 0.4082
                      CHANNELS 6 Xposition Yposition Zposition Zrotation Xrotation Yrotation
                      End Site
                      {
                        OFFSET -0.4919 -1.6479 0.2673
                      }
                    }
                  }
                }
                JOINT LeftFinger2
                {
                  OFFSET 0.9159 -9.2044 0.2193
                  CHANNELS 6 Xposition Yposition Zposition Zrotation Xrotation Yrotation
                  JOINT LeftFinger21
                  {
                    OFFSET 0.0117 -4.1944 -0.0248
                    CHANNELS 6 Xposition Yposition Zposition Zrotation Xrotation Yrotation
                    JOINT LeftFinger22
                    {
                      OFFSET 0.0071 -2.3249 -0.0142
                      CHANNELS 6 Xposition Yposition Zposition Zrotation Xrotation Yrotation
                      End Site
                      {
                        OFFSET -0.1475 -2.0882 0.0028
                      }
                    }
                  }
                }
                JOINT LeftFinger3
                {
                  OFFSET 0.6113 -8.7231 -2.0637
                  CHANNELS 6 Xposition Yposition Zposition Zrotation Xrotation Yrotation
                  JOINT LeftFinger31
                  {
                    OFFSET -0.1927 -3.8059 -0.2383
                    CHANNELS 6 Xposition Yposition Zposition Zrotation Xrotation Yrotation
                    JOINT LeftFinger32
                    {
                      OFFSET -0.1091 -2.1688 -0.1362
                      CHANNELS 6 Xposition Yposition Zposition Zrotation Xrotation Yrotation
                      End Site
                      {
                        OFFSET -0.2358 -1.9176 -0.0906
                      }
                    }
                  }
                }
                JOINT LeftFinger4
                {
                  OFFSET -0.6151 -8.0947 -3.5641
                  CHANNELS 6 Xposition Yposition Zposition Zrotation Xrotation Yrotation
                  JOINT LeftFinger41
                  {
                    OFFSET -0.4882 -2.341 -0.6462
                    CHANNELS 6 Xposition Yposition Zposition Zrotation Xrotation Yrotation
                    JOINT LeftFinger42
                    {
                      OFFSET -0.3575 -1.7167 -0.4742
                      CHANNELS 6 Xposition Yposition Zposition Zrotation Xrotation Yrotation
                      End Site
                      {
                        OFFSET -0.4187 -1.5237 -0.3496
                      }
                    }
                  }
                }
                JOINT LeftFinger0
                {
                  OFFSET -1.42 -1.8761 1.4223
                  CHANNELS 6 Xposition Yposition Zposition Zrotation Xrotation Yrotation
                  JOINT LeftFinger01
                  {
                    OFFSET -1.1471 -3.4929 2.6334
                    CHANNELS 6 Xposition Yposition Zposition Zrotation Xrotation Yrotation
                    JOINT LeftFinger02
                    {
                      OFFSET -0.823 -2.3 1.6571
                      CHANNELS 6 Xposition Yposition Zposition Zrotation Xrotation Yrotation
                      End Site
                      {
                        OFFSET -0.5822 -1.6914 1.1582
                      }
                    }
                  }
                }
              }
            }
          }
        }
        JOINT RightCollar
        {
          OFFSET -2.2603 21.606 7.4023
          CHANNELS 6 Xposition Yposition Zposition Zrotation Xrotation Yrotation
          JOINT RightShoulder
          {
            OFFSET -13.5187 -1.1334 -5.0155
            CHANNELS 6 Xposition Yposition Zposition Zrotation Xrotation Yrotation
            JOINT RightElbow
            {
              OFFSET 0.0994 -28.0499 -0.2431
              CHANNELS 6 Xposition Yposition Zposition Zrotation Xrotation Yrotation
              JOINT RightWrist
              {
                OFFSET -0.0679 -23.3996 -0.1402
                CHANNELS 6 Xposition Yposition Zposition Zrotation Xrotation Yrotation
                JOINT RightFinger1
                {
                  OFFSET -0.7932 -9.0691 2.5189
                  CHANNELS 6 Xposition Yposition Zposition Zrotation Xrotation Yrotation
                  JOINT RightFinger11
                  {
                    OFFSET 0.8272 -3.3923 0.5977
                    CHANNELS 6 Xposition Yposition Zposition Zrotation Xrotation Yrotation
                    JOINT RightFinger12
                    {
                      OFFSET 0.565 -2.3158 0.4082
                      CHANNELS 6 Xposition Yposition Zposition Zrotation Xrotation Yrotation
                      End Site
                      {
                        OFFSET 0.4919 -1.6479 0.2673
                      }
                    }
                  }
                }
                JOINT RightFinger2
                {
                  OFFSET -0.916 -9.2044 0.2193
                  CHANNELS 6 Xposition Yposition Zposition Zrotation Xrotation Yrotation
                  JOINT RightFinger21
                  {
                    OFFSET -0.0117 -4.1944 -0.0248
                    CHANNELS 6 Xposition Yposition Zposition Zrotation Xrotation Yrotation
                    JOINT RightFinger22
                    {
                      OFFSET -0.0071 -2.3249 -0.0142
                      CHANNELS 6 Xposition Yposition Zposition Zrotation Xrotation Yrotation
                      End Site
                      {
                        OFFSET 0.1475 -2.0882 0.0028
                      }
                    }
                  }
                }
                JOINT RightFinger3
                {
                  OFFSET -0.6113 -8.7231 -2.0637
                  CHANNELS 6 Xposition Yposition Zposition Zrotation Xrotation Yrotation
                  JOINT RightFinger31
                  {
                    OFFSET 0.1927 -3.8059 -0.2383
                    CHANNELS 6 Xposition Yposition Zposition Zrotation Xrotation Yrotation
                    JOINT RightFinger32
                    {
                      OFFSET 0.1091 -2.1688 -0.1362
                      CHANNELS 6 Xposition Yposition Zposition Zrotation Xrotation Yrotation
                      End Site
                      {
                        OFFSET 0.2358 -1.9176 -0.0906
                      }
                    }
                  }
                }
                JOINT RightFinger4
                {
                  OFFSET 0.6151 -8.0947 -3.564
                  CHANNELS 6 Xposition Yposition Zposition Zrotation Xrotation Yrotation
                  JOINT RightFinger41
                  {
                    OFFSET 0.4882 -2.341 -0.6462
                    CHANNELS 6 Xposition Yposition Zposition Zrotation Xrotation Yrotation
                    JOINT RightFinger42
                    {
                      OFFSET 0.3574 -1.7166 -0.4742
                      CHANNELS 6 Xposition Yposition Zposition Zrotation Xrotation Yrotation
                      End Site
                      {
                        OFFSET 0.4187 -1.5237 -0.3496
                      }
                    }
                  }
                }
                JOINT RightFinger0
                {
                  OFFSET 1.4199 -1.8761 1.4221
                  CHANNELS 6 Xposition Yposition Zposition Zrotation Xrotation Yrotation
                  JOINT RightFinger01
                  {
                    OFFSET 1.1472 -3.4929 2.6336
                    CHANNELS 6 Xposition Yposition Zposition Zrotation Xrotation Yrotation
                    JOINT RightFinger02
                    {
                      OFFSET 0.8229 -2.3 1.6571
                      CHANNELS 6 Xposition Yposition Zposition Zrotation Xrotation Yrotation
                      End Site
                      {
                        OFFSET 0.5822 -1.6914 1.1582
                      }
                    }
                  }
                }
              }
            }
          }
        }
      }
    }
  }
  JOINT RightHip
  {
    OFFSET -9.412 3.9771 -0.7758
    CHANNELS 6 Xposition Yposition Zposition Zrotation Xrotation Yrotation
    JOINT RightKnee
    {
      OFFSET -0.7531 -40.938 0
      CHANNELS 6 Xposition Yposition Zposition Zrotation Xrotation Yrotation
      JOINT RightAnkle
      {
        OFFSET 0 -40.1986 0
        CHANNELS 6 Xposition Yposition Zposition Zrotation Xrotation Yrotation
        JOINT RightToe
        {
          OFFSET 0 -4.4182 9.239
          CHANNELS 6 Xposition Yposition Zposition Zrotation Xrotation Yrotation
          End Site
          {
            OFFSET 0 0 6.1981
          }
        }
      }
    }
  }
  JOINT LeftHip
  {
    OFFSET 9.4119 3.9773 -0.7758
    CHANNELS 6 Xposition Yposition Zposition Zrotation Xrotation Yrotation
    JOINT LeftKnee
    {
      OFFSET 0.7532 -40.9383 0
      CHANNELS 6 Xposition Yposition Zposition Zrotation Xrotation Yrotation
      JOINT LeftAnkle
      {
        OFFSET 0 -40.1986 0
        CHANNELS 6 Xposition Yposition Zposition Zrotation Xrotation Yrotation
        JOINT LeftToe
        {
          OFFSET 0 -4.4182 9.239
          CHANNELS 6 Xposition Yposition Zposition Zrotation Xrotation Yrotation
          End Site
          {
            OFFSET 0 0 6.1981
          }
        }
      }
    }
  }
}
MOTION
Frames:	4
Frame Time:	0.0333333
-0.000645731 7.24957 72.3286 -0.0131249 -71.0095 179.991 0 8.7983 -4.7612 -0.304068 1.52503 -0.114552 0 8.0291 0.4195 -0.605407 3.05066 -0.22112 -1.11022e-016 9.9351 -2.2114 -0.605407 3.05066 -0.221121 0 22.3885 -0.4656 1.02027e-005 -15.4583 3.96281e-006 -0.0001 12.643 3.4389 -0.0603057 -22.7924 -0.0248221 2.2603 21.606 7.4023 24.0529 16.5255 -26.1344 13.5163 -1.1332 -5.0146 86.5709 -15.2019 69.8389 -0.0995 -28.05 -0.2431 130.434 -61.0192 151.53 0.0679 -23.3996 -0.1402 3.23344 -11.7638 -14.065 0.7932 -9.069 2.5189 -0 0 1.43125e-014 -0.8272 -3.3923 0.5977 -4.77083e-015 9.54166e-015 6.36111e-015 -0.5649 -2.3158 0.4082 1.59028e-015 6.36111e-015 1.27222e-014 0.9159 -9.2044 0.2193 -0 0 1.43125e-014 0.0117 -4.1944 -0.0248 -0.0128147 0.00232893 8.56082e-005 0.0071 -2.3249 -0.0142 3.17975e-006 -5.18104e-006 5.08219e-007 0.6113 -8.7231 -2.0637 -0 0 1.43125e-014 -0.1927 -3.8059 -0.2383 -0.0160478 0.00299498 0.000855649 -0.1091 -2.1688 -0.1362 -3.18055e-015 0 -1.11319e-014 -0.6151 -8.0947 -3.5641 -0 0 1.43125e-014 -0.4882 -2.341 -0.6462 -0.0125938 0.00311884 0.00282444 -0.3575 -1.7167 -0.4742 3.18055e-015 -6.36111e-015 -3.18055e-015 -1.42 -1.8761 1.4223 -0 0 1.43125e-014 -1.1471 -3.4929 2.6334 -4.77083e-015 9.54166e-015 6.36111e-015 -0.823 -2.3 1.6571 1.59028e-015 6.36111e-015 1.27222e-014 -2.2603 21.606 7.4023 -25.8556 16.3903 21.6215 -13.5187 -1.1334 -5.0155 -82.1214 -19.5894 -69.7186 0.0994 -28.0499 -0.2431 -127.629 -60.8125 -150.262 -0.0679 -23.3996 -0.1402 -17.381 -15.8693 0.792916 -0.7932 -9.0691 2.5189 4.13139e-006 1.81071e-006 2.7709e-006 0.8272 -3.3923 0.5977 7.95139e-015 -3.18055e-015 1.66979e-014 0.565 -2.3158 0.4082 1.27222e-014 0 1.59028e-014 -0.916 -9.2044 0.2193 4.13139e-006 1.81071e-006 2.7709e-006 -0.0117 -4.1944 -0.0248 0.0129279 0.00231716 -8.77102e-005 -0.0071 -2.3249 -0.0142 -1.59028e-015 1.27222e-014 -7.95139e-016 -0.6113 -8.7231 -2.0637 4.13139e-006 1.81071e-006 2.7709e-006 0.1927 -3.8059 -0.2383 0.0163072 0.00302454 -0.000873706 0.1091 -2.1688 -0.1362 4.77083e-015 3.18055e-015 -7.95139e-016 0.6151 -8.0947 -3.564 4.13139e-006 1.81071e-006 2.7709e-006 0.4882 -2.341 -0.6462 0.0145618 0.00366856 -0.00326194 0.3574 -1.7166 -0.4742 -2.38542e-015 -9.54166e-015 7.95139e-016 1.4199 -1.8761 1.4221 4.13139e-006 1.81071e-006 2.7709e-006 1.1472 -3.4929 2.6336 7.95139e-015 -3.18055e-015 1.66979e-014 0.8229 -2.3 1.6571 1.27222e-014 0 1.59028e-014 -9.412 3.9771 -0.7758 -99.6356 -31.7583 -85.1269 -0.7531 -40.938 -1.42109e-014 177.591 38.8281 177.813 0 -40.1986 0 -5.93047 9.49854 -3.74729 -8.88178e-016 -4.4182 9.239 1.48904e-006 4.25243e-006 -1.12078e-005 9.4119 3.9773 -0.7758 99.6335 -31.7854 85.1211 0.7532 -40.9383 0 -177.571 38.829 -177.842 0 -40.1986 0 5.9215 9.49779 3.75848 0 -4.4182 9.239 -1.02521e-006 3.84888e-008 1.12758e-006 
-0.000647635 7.24439 72.4104 -0.0131249 -71.0095 179.991 0 8.7983 -4.7612 -0.304218 1.55837 -0.11401 -2.77556e-017 8.0291 0.4195 -0.605668 3.1173 -0.219859 0 9.9351 -2.2114 -0.605667 3.11728 -0.219859 -1.11022e-016 22.3885 -0.4656 -4.96209e-006 -15.7579 -2.03045e-006 -0.0001 12.643 3.4389 -0.0604742 -23.0922 -0.0251474 2.2603 21.606 7.4023 24.1429 16.2436 -25.8757 13.5163 -1.1332 -5.0146 86.5709 -15.2019 69.839 -0.0995 -28.05 -0.2431 130.434 -61.0192 151.53 0.0679 -23.3996 -0.1402 3.41911 -11.6278 -13.9388 0.7932 -9.069 2.5189 -6.68364e-007 -3.56325e-007 4.91326e-007 -0.8272 -3.3923 0.5977 8.82781e-032 3.18055e-015 -1.59028e-015 -0.5649 -2.3158 0.4082 -7.06225e-031 1.27222e-014 3.18055e-015 0.9159 -9.2044 0.2193 -6.68364e-007 -3.56325e-007 4.91326e-007 0.0117 -4.1944 -0.0248 -0.0128348 0.0023261 8.7672e-005 0.0071 -2.3249 -0.0142 -5.04724e-007 8.77299e-007 -2.47599e-006 0.6113 -8.7231 -2.0637 -6.68364e-007 -3.56325e-007 4.91326e-007 -0.1927 -3.8059 -0.2383 -0.0160489 0.00300198 0.000853038 -0.1091 -2.1688 -0.1362 -1.72898e-006 -5.51463e-006 -1.86898e-006 -0.6151 -8.0947 -3.5641 -6.68364e-007 -3.56325e-007 4.91326e-007 -0.4882 -2.341 -0.6462 -0.0125952 0.00311994 0.00283077 -0.3575 -1.7167 -0.4742 9.54166e-015 3.18055e-015 1.11319e-014 -1.42 -1.8761 1.4223 -6.68364e-007 -3.56325e-007 4.91326e-007 -1.1471 -3.4929 2.6334 8.82781e-032 3.18055e-015 -1.59028e-015 -0.823 -2.3 1.6571 -7.06225e-031 1.27222e-014 3.18055e-015 -2.2603 21.606 7.4023 -25.9203 16.1178 21.3383 -13.5187 -1.1334 -5.0155 -82.213 -19.7536 -69.6918 0.0994 -28.0499 -0.2431 -127.629 -60.8124 -150.262 -0.0679 -23.3996 -0.1402 -17.5497 -15.7018 0.692972 -0.7932 -9.0691 2.5189 7.02324e-007 9.54166e-015 -4.72185e-007 0.8272 -3.3923 0.5977 -6.12178e-006 -1.0367e-005 2.23074e-006 0.565 -2.3158 0.4082 4.77083e-015 6.36111e-015 -2.38542e-015 -0.916 -9.2044 0.2193 7.02324e-007 9.54166e-015 -4.72185e-007 -0.0117 -4.1944 -0.0248 0.0129794 0.00232944 -8.63333e-005 -0.0071 -2.3249 -0.0142 -7.95139e-016 6.36111e-015 6.36111e-015 -0.6113 -8.7231 -2.0637 7.02324e-007 9.54166e-015 -4.72185e-007 0.1927 -3.8059 -0.2383 0.0163634 0.00303458 -0.000869732 0.1091 -2.1688 -0.1362 0 0 -1.59028e-015 0.6151 -8.0947 -3.564 7.02324e-007 9.54166e-015 -4.72185e-007 0.4882 -2.341 -0.6462 0.0146043 0.00369185 -0.00327435 0.3574 -1.7166 -0.4742 2.98496e-006 -4.56786e-006 3.47997e-006 1.4199 -1.8761 1.4221 7.02324e-007 9.54166e-015 -4.72185e-007 1.1472 -3.4929 2.6336 -6.12178e-006 -1.0367e-005 2.23074e-006 0.8229 -2.3 1.6571 4.77083e-015 6.36111e-015 -2.38542e-015 -9.412 3.9771 -0.7758 -99.8357 -31.7898 -85.2362 -0.7531 -40.938 -1.42109e-014 177.591 38.8335 177.819 3.55271e-015 -40.1986 0 -5.92906 9.50348 -3.74323 -1.77636e-015 -4.4182 9.239 -3.52527e-006 -8.35086e-007 -1.19118e-006 9.4119 3.9773 -0.7758 99.8338 -31.8161 85.2307 0.7532 -40.9383 0 -177.57 38.8345 -177.848 0 -40.1986 -1.42109e-014 5.92006 9.50283 3.7544 -8.88178e-016 -4.4182 9.239 -2.35517e-006 -6.98049e-008 -8.23408e-008 
-0.000649502 7.23921 72.4922 -0.0131249 -71.0095 179.991 8.67362e-019 8.7983 -4.7612 -0.304377 1.59173 -0.11347 2.77556e-017 8.0291 0.4195 -0.605948 3.18402 -0.218603 -1.11022e-016 9.9351 -2.2114 -0.60595 3.18402 -0.218603 0 22.3885 -0.4656 3.45822e-005 -16.0579 1.24564e-005 -0.0001 12.643 3.4389 -0.0606448 -23.3921 -0.0254749 2.2603 21.606 7.4023 24.2342 15.9618 -25.6168 13.5163 -1.1332 -5.0146 86.5709 -15.2019 69.8389 -0.0995 -28.05 -0.2431 130.434 -61.0192 151.53 0.0679 -23.3996 -0.1402 3.60443 -11.4913 -13.8131 0.7932 -9.069 2.5189 -3.18055e-015 3.18055e-015 -1.11319e-014 -0.8272 -3.3923 0.5977 -1.33686e-006 -2.79583e-006 9.83582e-007 -0.5649 -2.3158 0.4082 -1.59028e-015 -9.54166e-015 -1.59028e-015 0.9159 -9.2044 0.2193 -3.18055e-015 3.18055e-015 -1.11319e-014 0.0117 -4.1944 -0.0248 -0.0128238 0.0023321 9.07155e-005 0.0071 -2.3249 -0.0142 1.33681e-006 3.57252e-007 -9.83528e-007 0.6113 -8.7231 -2.0637 -3.18055e-015 3.18055e-015 -1.11319e-014 -0.1927 -3.8059 -0.2383 -0.0160513 0.00300592 0.000860807 -0.1091 -2.1688 -0.1362 6.68398e-007 3.57248e-007 -4.91753e-007 -0.6151 -8.0947 -3.5641 -3.18055e-015 3.18055e-015 -1.11319e-014 -0.4882 -2.341 -0.6462 -0.012602 0.00312719 0.00283539 -0.3575 -1.7167 -0.4742 1.33682e-006 3.57225e-007 -9.83489e-007 -1.42 -1.8761 1.4223 -3.18055e-015 3.18055e-015 -1.11319e-014 -1.1471 -3.4929 2.6334 -1.33686e-006 -2.79583e-006 9.83582e-007 -0.823 -2.3 1.6571 -1.59028e-015 -9.54166e-015 -1.59028e-015 -2.2603 21.606 7.4023 -25.9862 15.8452 21.055 -13.5187 -1.1334 -5.0155 -82.3082 -19.9169 -69.6664 0.0994 -28.0499 -0.2431 -127.623 -60.8141 -150.258 -0.0679 -23.3996 -0.1402 -17.7181 -15.5339 0.593567 -0.7932 -9.0691 2.5189 -1.58755e-006 -3.19178e-006 -4.42703e-006 0.8272 -3.3923 0.5977 -2.80811e-006 -4.59852e-007 1.89034e-006 0.565 -2.3158 0.4082 -4.89677e-006 3.1684e-006 -4.07671e-006 -0.916 -9.2044 0.2193 -1.58755e-006 -3.19178e-006 -4.42703e-006 -0.0117 -4.1944 -0.0248 0.0129487 0.00230859 -8.85104e-005 -0.0071 -2.3249 -0.0142 -5.73806e-006 -6.64636e-008 1.98974e-007 -0.6113 -8.7231 -2.0637 -1.58755e-006 -3.19178e-006 -4.42703e-006 0.1927 -3.8059 -0.2383 0.0163212 0.00303526 -0.000869614 0.1091 -2.1688 -0.1362 -2.16694e-006 -2.29241e-006 -3.7311e-007 0.6151 -8.0947 -3.564 -1.58755e-006 -3.19178e-006 -4.42703e-006 0.4882 -2.341 -0.6462 0.0145902 0.00368145 -0.00325608 0.3574 -1.7166 -0.4742 4.77083e-015 0 3.97569e-015 1.4199 -1.8761 1.4221 -1.58755e-006 -3.19178e-006 -4.42703e-006 1.1472 -3.4929 2.6336 -2.80811e-006 -4.59852e-007 1.89034e-006 0.8229 -2.3 1.6571 -4.89677e-006 3.1684e-006 -4.07671e-006 -9.412 3.9771 -0.7758 -100.036 -31.821 -85.3458 -0.7531 -40.938 -1.42109e-014 177.59 38.8391 177.826 -3.55271e-015 -40.1986 0 -5.92767 9.50853 -3.73916 0 -4.4182 9.239 3.91526e-007 -1.21197e-006 4.52896e-006 9.4119 3.9773 -0.7758 100.034 -31.8466 85.3404 0.7532 -40.9383 0 -177.57 38.84 -177.854 3.55271e-015 -40.1986 1.42109e-014 5.91869 9.5078 3.75034 8.88178e-016 -4.4182 9.239 7.68485e-006 -2.02765e-006 -3.30247e-006 
-0.000651426 7.23402 72.574 -0.0131249 -71.0095 179.991 0 8.7983 -4.7612 -0.304526 1.62507 -0.112927 2.77556e-017 8.0291 0.4195 -0.60621 3.25066 -0.217339 1.11022e-016 9.9351 -2.2114 -0.606211 3.25065 -0.21734 1.11022e-016 22.3885 -0.4656 1.71188e-005 -16.3576 5.96771e-006 -0.0001 12.643 3.4389 -0.0608168 -23.6921 -0.0258034 2.2603 21.606 7.4023 24.3266 15.6805 -25.3578 13.5163 -1.1332 -5.0146 86.5709 -15.2019 69.839 -0.0995 -28.05 -0.2431 130.434 -61.0192 151.53 0.0679 -23.3996 -0.1402 3.78935 -11.3544 -13.6878 0.7932 -9.069 2.5189 3.18055e-015 0 1.59028e-015 -0.8272 -3.3923 0.5977 1.59028e-015 3.18055e-015 1.59028e-015 -0.5649 -2.3158 0.4082 -1.27222e-014 9.54166e-015 4.77083e-015 0.9159 -9.2044 0.2193 3.18055e-015 0 1.59028e-015 0.0117 -4.1944 -0.0248 -0.012825 0.00232997 8.78111e-005 0.0071 -2.3249 -0.0142 3.18055e-015 0 3.18055e-015 0.6113 -8.7231 -2.0637 3.18055e-015 0 1.59028e-015 -0.1927 -3.8059 -0.2383 -0.0160077 0.00297774 0.000858023 -0.1091 -2.1688 -0.1362 4.77083e-015 3.18055e-015 1.59028e-015 -0.6151 -8.0947 -3.5641 3.18055e-015 0 1.59028e-015 -0.4882 -2.341 -0.6462 -0.0125795 0.00310536 0.00282995 -0.3575 -1.7167 -0.4742 -2.64834e-031 -3.18055e-015 -4.77083e-015 -1.42 -1.8761 1.4223 3.18055e-015 0 1.59028e-015 -1.1471 -3.4929 2.6334 1.59028e-015 3.18055e-015 1.59028e-015 -0.823 -2.3 1.6571 -1.27222e-014 9.54166e-015 4.77083e-015 -2.2603 21.606 7.4023 -26.0535 15.5732 20.7719 -13.5187 -1.1334 -5.0155 -82.3973 -20.0818 -69.6391 0.0994 -28.0499 -0.2431 -127.628 -60.8128 -150.261 -0.0679 -23.3996 -0.1402 -17.886 -15.3657 0.494759 -0.7932 -9.0691 2.5189 4.77083e-015 9.54166e-015 3.97569e-015 0.8272 -3.3923 0.5977 -4.13466e-006 9.67829e-007 -2.75237e-006 0.565 -2.3158 0.4082 4.77083e-015 0 -1.59028e-015 -0.916 -9.2044 0.2193 4.77083e-015 9.54166e-015 3.97569e-015 -0.0117 -4.1944 -0.0248 0.0129437 0.00230949 -7.84668e-005 -0.0071 -2.3249 -0.0142 1.43125e-014 0 2.06736e-014 -0.6113 -8.7231 -2.0637 4.77083e-015 9.54166e-015 3.97569e-015 0.1927 -3.8059 -0.2383 0.0163002 0.00302222 -0.000870723 0.1091 -2.1688 -0.1362 3.97569e-015 -6.36111e-015 5.56597e-015 0.6151 -8.0947 -3.564 4.77083e-015 9.54166e-015 3.97569e-015 0.4882 -2.341 -0.6462 0.0145743 0.00368224 -0.00326042 0.3574 -1.7166 -0.4742 7.95139e-016 0 2.38542e-015 1.4199 -1.8761 1.4221 4.77083e-015 9.54166e-015 3.97569e-015 1.1472 -3.4929 2.6336 -4.13466e-006 9.67829e-007 -2.75237e-006 0.8229 -2.3 1.6571 4.77083e-015 0 -1.59028e-015 -9.412 3.9771 -0.7758 -100.236 -31.8518 -85.4554 -0.7531 -40.938 0 177.59 38.8446 177.832 -3.55271e-015 -40.1986 1.42109e-014 -5.92628 9.51336 -3.7351 0 -4.4182 9.239 -4.14265e-006 7.91891e-007 4.49443e-006 9.4119 3.9773 -0.7758 100.234 -31.8766 85.4502 0.7532 -40.9383 0 -177.57 38.8455 -177.861 0 -40.1986 0 5.91733 9.51282 3.74625 8.88178e-016 -4.4182 9.239 1.75406e-005 -4.62418e-006 -8.82362e-006 
